<?xml version="1.0" encoding="utf-8"?>
<!-- Generator: Adobe Illustrator 25.4.1, SVG Export Plug-In . SVG Version: 6.00 Build 0)  -->
<svg version="1.1" id="Layer_1" xmlns="http://www.w3.org/2000/svg" xmlns:xlink="http://www.w3.org/1999/xlink" x="0px" y="0px"
	 viewBox="0 0 512 512" style="enable-background:new 0 0 512 512;" xml:space="preserve">
<style type="text/css">
	.st0{fill:#FFFFFF;}
</style>
<g>
	<path d="M106.7,502C53.4,502,10,458.6,10,405.3V106.7C10,53.4,53.4,10,106.7,10h298.7c53.3,0,96.7,43.4,96.7,96.7v298.7
		c0,53.3-43.4,96.7-96.7,96.7H106.7z"/>
	<path d="M405.3,20c47.8,0,86.7,38.9,86.7,86.7v298.7c0,47.8-38.9,86.7-86.7,86.7H106.7C58.9,492,20,453.1,20,405.3V106.7
		C20,58.9,58.9,20,106.7,20H405.3 M405.3,0H106.7C47.8,0,0,47.8,0,106.7v298.7C0,464.2,47.8,512,106.7,512h298.7
		c58.9,0,106.7-47.8,106.7-106.7V106.7C512,47.8,464.3,0,405.3,0L405.3,0z"/>
</g>
<g>
	<path class="st0" d="M415.3,190.2c-1.5-29.2-10.5-50.8-26.2-67.3S351,98.2,321.8,96.7C309.8,96,288.1,96,256,96
		c-31.4,0-53.8,0-65.8,0.7c-29.2,1.5-51.6,10.5-67.3,26.2c-16.4,15.7-24.7,38.1-26.2,67.3C96,202.2,96,224.6,96,256s0,53.8,0.7,65.8
		c1.5,29.2,10.5,51.6,26.2,67.3c15.7,16.4,38.1,24.7,67.3,26.2c12,0.7,33.6,0.7,65.8,0.7c31.4,0,53.8,0,65.8-0.7
		c29.2-1.5,50.8-10.5,67.3-26.2c16.4-15.7,24.7-38.1,26.2-67.3c0.7-12,0.7-33.6,0.7-65.8S415.3,202.2,415.3,190.2z M387.6,240.3
		c0,9.7,0,15,0,15.7c0,0.7,0,6,0,15.7c0,9,0,16.4,0,21.7s-0.7,12-0.7,20.2c-0.7,9-1.5,15.7-2.2,21.7c-0.7,6-2.2,11.2-3.7,15
		c-3,7.5-6.7,13.5-12,18.7c-6,5.2-12,9-18.7,12c-3.7,1.5-9,3-15,3.7c-6,1.5-13.5,2.2-21.7,2.2c-8.2,0.7-15,0.7-20.2,0.7
		c-4.5,0-12,0-21.7,0s-15,0-15.7,0c-0.7,0-6,0-15.7,0c-9,0-16.4,0-21.7,0s-11.2,0-20.2-0.7c-9-0.7-15.7-1.5-21.7-2.2
		c-6-0.7-11.2-2.2-15-3.7c-7.5-3-13.5-6.7-18.7-12c-5.2-6-9-12-12-18.7c-1.5-3.7-2.2-9-3.7-15c-1.5-6-2.2-13.5-2.2-21.7
		c-0.7-8.2-0.7-15-0.7-20.2c0-4.5,0-12,0-21.7c0-9.7,0-15,0-15.7c0-0.7,0-6,0-15.7c0-9,0-16.4,0-21.7c0-5.2,0.7-12,0.7-20.2
		c0.7-9,1.5-15.7,2.2-21.7c0.7-6,2.2-11.2,3.7-15c3-7.5,6.7-13.5,12-18.7c6-5.2,12-9,18.7-12c3.7-1.5,9-3,15-3.7
		c6-1.5,13.5-2.2,21.7-2.2c8.2-0.7,15-0.7,20.2-0.7c4.5,0,12,0,21.7,0c9.7,0,15,0,15.7,0c0.7,0,6,0,15.7,0s17.2,0,21.7,0
		c5.2,0,12,0.7,20.2,0.7c9,0.7,15.7,1.5,21.7,2.2c6,0.7,11.2,2.2,15,3.7c7.5,3,13.5,6.7,18.7,12c5.2,6,9,12,12,18.7
		c1.5,3.7,3,9,3.7,15c1.5,6,2.2,13.5,2.2,21.7c0.7,8.2,0.7,15,0.7,20.2C387.6,223.1,387.6,230.6,387.6,240.3z"/>
	<path class="st0" d="M313.6,197.7c-15.7-16.4-35.1-23.9-58.3-23.9c-23.2,0-42.6,8.2-58.3,23.9C181.2,214.1,173,232.8,173,256
		c0,23.2,8.2,42.6,23.9,58.3c16.4,15.7,35.1,23.9,58.3,23.9c23.2,0,42.6-8.2,58.3-23.9c15.7-16.4,23.9-35.1,23.9-58.3
		C337.5,232.8,329.3,213.4,313.6,197.7z M293.4,293.4c-10.5,10.5-23.2,15.7-38.1,15.7s-27.7-5.2-38.1-15.7
		c-10.5-9.7-15.7-22.4-15.7-37.4c0-15,5.2-27.7,15.7-38.1c10.5-10.5,23.2-15.7,38.1-15.7s27.7,5.2,38.1,15.7
		c10.5,10.5,15.7,23.9,15.7,38.1C309.1,270.2,303.9,282.9,293.4,293.4z"/>
	<path class="st0" d="M354.7,156.6c3.7,3.7,6,8.2,6,13.5s-2.2,9.7-6,13.5c-3.7,3.7-8.2,6-13.5,6s-9.7-2.2-13.5-6
		c-3.7-3.7-6-8.2-6-13.5s2.2-9.7,6-13.5c3.7-3.7,8.2-6,13.5-6S351,152.8,354.7,156.6z"/>
</g>
</svg>
